<?xml version="1.0" encoding="utf-8"?><svg version="1.1" id="Layer_1" xmlns="http://www.w3.org/2000/svg" xmlns:xlink="http://www.w3.org/1999/xlink" x="0px" y="0px" viewBox="0 0 115.16 122.88" style="enable-background:new 0 0 115.16 122.88" xml:space="preserve"><g><path d="M0,69.1V53.79c4.65-0.04,8.13-1.42,10.49-4.12C12.82,46.96,14,40.87,14,31.41c0-7.22,0.26-12.56,0.81-16.03 c0.52-3.47,1.81-6.39,3.86-8.73c2.05-2.35,4.69-4.03,7.92-5.08C29.81,0.52,34.4,0,40.33,0h3.38v15.31c-6.2,0-9.9,0.63-11.12,1.92 c-1.22,1.27-1.88,3.77-1.96,7.48c-0.26,10.21-0.59,16.86-0.98,19.93c-0.41,3.05-1.35,5.98-2.81,8.77 c-1.46,2.79-4.19,5.47-8.18,8.03c3.8,2.31,6.54,5.06,8.24,8.24c1.72,3.21,2.75,7.81,3.03,13.83l0.96,18.63 c0.39,1.79,1.31,3.14,2.77,4.06c1.46,0.92,4.82,1.37,10.06,1.37v15.31h-3.34c-6.83,0-12.08-0.78-15.81-2.33 c-3.71-1.55-6.39-4.1-8.07-7.63c-1.66-3.55-2.49-9.27-2.49-17.14c0-8.7-0.31-14.26-0.89-16.71c-0.59-2.42-1.74-4.65-3.45-6.67 C7.94,70.36,4.73,69.27,0,69.1L0,69.1z M115.16,69.1c-4.65,0.04-8.14,1.42-10.49,4.17c-2.33,2.73-3.51,8.77-3.51,18.15 c0,7.26-0.26,12.61-0.76,16.1c-0.52,3.47-1.79,6.39-3.84,8.72c-2.05,2.36-4.71,4.03-7.94,5.08c-3.25,1.05-7.83,1.57-13.76,1.57 h-3.4v-15.31c5.95,0,9.6-0.61,10.93-1.85c1.35-1.24,2.07-3.75,2.16-7.55c0.26-10.93,0.65-17.93,1.18-21.03 c0.55-3.1,1.59-5.98,3.21-8.66c1.59-2.7,4.12-5.04,7.57-7.05c-3.64-2.38-6.19-4.73-7.63-7.02c-1.44-2.31-2.42-4.8-2.92-7.5 c-0.5-2.7-0.89-7.74-1.16-15.09c-0.24-7.35-0.55-11.56-0.9-12.61c-0.33-1.07-1.16-1.98-2.46-2.75c-1.31-0.76-4.62-1.16-9.97-1.16V0 h3.38c6.83,0,12.08,0.79,15.79,2.33c3.71,1.55,6.39,4.1,8.05,7.63c1.66,3.56,2.49,9.27,2.49,17.14c0,9.05,0.33,14.74,0.98,17.08 c0.68,2.36,1.83,4.49,3.53,6.43c1.68,1.94,4.84,2.99,9.49,3.16V69.1L115.16,69.1z"/></g></svg>